<?xml version="1.0" encoding="utf-8"?>
<!-- Generator: Adobe Illustrator 25.0.1, SVG Export Plug-In . SVG Version: 6.00 Build 0)  -->
<svg version="1.1" id="Layer_1"
	xmlns="http://www.w3.org/2000/svg"
	xmlns:xlink="http://www.w3.org/1999/xlink" x="0px" y="0px" viewBox="0 0 1022 209" style="enable-background:new 0 0 1022 209;" xml:space="preserve">
	<style type="text/css">
	.st0{fill:#1664D6;}
	</style>
	<g>
		<path class="st0" d="M170.7,47.42c1.77,0.16,3.55,0.24,5.32,0.24c-0.33,0.65-0.81,1.54-1.45,2.66c-0.65,1.13-1.13,1.98-1.45,2.54
		c-0.33,0.57-0.89,1.13-1.69,1.69c-0.81,0.57-1.69,1.01-2.66,1.33c-0.33,0-0.73,0.4-1.21,1.21C156.1,72.27,146.58,87.52,139,102.84
		c-0.33,0.33-0.53,0.77-0.6,1.33c-0.08,0.57-0.16,1.13-0.24,1.69c-0.08,0.57-0.2,1.01-0.36,1.33c0,0.32-0.65,2.34-1.94,6.05
		c-0.33,0-0.57-0.08-0.73-0.24c0-0.16-0.08-0.4-0.24-0.73c0-0.32,0-0.64,0-0.97l-0.73,0.48c-0.65,0.97-3.11,5.57-7.38,13.79
		c-4.28,8.23-7.54,14.52-9.8,18.88c-2.58,4.68-4.68,9.92-6.29,15.73c-0.81,2.75-1.69,5.73-2.66,8.95c-1.61,4.84-3.96,8.87-7.02,12.1
		c-1.29,1.45-2.9,3.95-4.84,7.5c-0.48,0.97-1.45,3.15-2.9,6.53c-1.45,3.39-2.75,5.97-3.87,7.74c-0.65,1.13-1.66,2.02-3.02,2.66
		c-1.37,0.64-2.7,0.73-3.99,0.24c-3.23-1.29-6.7-0.89-10.41,1.21l-2.42,0.48v-2.66c0.81-4.84,3.15-12.58,7.02-23.23
		c0.32-0.81,1.17-3.35,2.54-7.62c1.37-4.27,2.54-7.46,3.51-9.56c0.48-0.64,0.93-1.45,1.33-2.42c0.4-0.97,0.76-1.89,1.09-2.78
		c0.32-0.88,0.68-1.77,1.09-2.66c0.4-0.88,0.88-1.73,1.45-2.54c0.56-0.81,1.25-1.53,2.06-2.18c0.81-0.81,1.69-2.38,2.66-4.72
		c0.97-2.34,1.53-3.67,1.69-3.99c0.64-1.29,1.73-3.51,3.27-6.65c1.53-3.15,2.94-5.81,4.24-7.99c1.29-2.18,2.66-4.15,4.11-5.93
		c2.74-2.9,5.77-7.38,9.08-13.43c3.3-6.05,5.85-10.28,7.62-12.71c-0.16-0.16-0.4-0.32-0.73-0.48c-9.36,7.91-14.44,12.18-15.25,12.83
		c-5.17,4.2-8.87,7.02-11.13,8.47c-0.33,0.33-1.09,0.48-2.3,0.48s-2.06,0.08-2.54,0.24c-0.81,0.33-1.81,0.97-3.02,1.94
		c-1.21,0.97-1.98,1.61-2.3,1.94c-1.13,0.81-2.1,1.21-2.9,1.21c-0.81,0-4.44-0.16-10.89-0.48c-2.42,0-3.71,0-3.87,0
		c-0.81-0.16-4.52-0.88-11.13-2.18c0-0.16,0.81-1.57,2.42-4.23c1.61-2.66,2.82-4.64,3.63-5.93c0.64-1.13,0.81-2.1,0.48-2.9
		c-0.33-1.29-1.78-5.89-4.36-13.79c-3.87,7.42-5.97,11.46-6.29,12.1c-0.33,0.48-0.73,1.09-1.21,1.81s-0.93,1.45-1.33,2.18
		c-0.4,0.73-0.77,1.41-1.09,2.06c-0.65,1.29-1.61,3.35-2.9,6.17c-1.29,2.82-2.34,4.96-3.15,6.41c-2.58,5.32-4.6,9.12-6.05,11.37
		c-0.97,1.29-2.46,3.19-4.48,5.69c-2.02,2.5-3.43,4.32-4.23,5.45c-0.48,0.81-1.61,2.99-3.39,6.53c-1.94,3.87-3.63,7.34-5.08,10.41
		c0,0.33-0.04,0.77-0.12,1.33c-0.08,0.57-0.16,0.97-0.24,1.21c-0.08,0.24-1.01,1.25-2.78,3.02c0-0.16-0.48-1.13-1.45-2.9
		c-1.13-0.16-2.34-0.08-3.63,0.24c-1.29,0.33-2.34,0.65-3.15,0.97c-0.81,0.32-2.06,0.93-3.75,1.81c-1.69,0.89-2.94,1.49-3.75,1.81
		c1.13-6.78,1.69-10.32,1.69-10.65c0.16-2.74,0.65-5.57,1.45-8.47c0.81-2.9,1.61-5.28,2.42-7.14c0.81-1.85,2.02-4.39,3.63-7.62
		c1.61-3.23,2.75-5.57,3.39-7.02c3.55-8.07,13.55-29.44,30.01-64.13c0.48-0.97,1.29-2.54,2.42-4.72c1.13-2.18,2.02-3.83,2.66-4.96
		c0-0.16,0.56-2.02,1.69-5.57c0.48,0.16,0.88,0.08,1.21-0.24c0.32-0.32,0.56-0.93,0.73-1.81c0.16-0.88,0.16-1.89,0-3.02
		c-0.65,0.97-1.01,1.49-1.09,1.57c-0.08,0.08-0.77,0.53-2.06,1.33c-1.29-8.71-1.94-13.31-1.94-13.79c-0.16-3.23-0.16-8.79,0-16.7
		c0.16-4.03,0.4-7.82,0.73-11.37c0-0.16,0.56-1.37,1.69-3.63c0.16,0.33,0.97,1.54,2.42,3.63c0.81,0,1.33-0.24,1.57-0.73
		c0.24-0.48,0.48-1.17,0.73-2.06c0.24-0.88,0.52-1.57,0.85-2.06c0.16,0.97,0.4,2.26,0.73,3.87c0.32,1.61,0.56,2.9,0.73,3.87
		c0.97-2.58,1.45-3.95,1.45-4.11c1.29-1.94,2.74-2.42,4.36-1.45c0.32,0.33,1.61,0,3.87-0.97c0.16,0,0.48-0.32,0.97-0.97
		c2.74,0.33,4.92,0.65,6.53,0.97c1.13,3.07,2.09,5.65,2.9,7.74c0.32-0.32,0.93-0.97,1.81-1.94c0.88-0.97,1.57-1.49,2.06-1.57
		c0.48-0.08,1.45,0.04,2.9,0.36c-0.33,1.29-0.57,2.5-0.73,3.63c4.36-1.77,7.74-3.15,10.16-4.11c1.61,2.42,2.42,4.03,2.42,4.84
		c0,0.81-0.89,2.42-2.66,4.84c-0.16,0.33-1.69,2.66-4.6,7.02l0.73,0.48c0.48,0.33,1.01,0.61,1.57,0.85
		c0.56,0.24,1.17,0.33,1.81,0.24c0.64-0.08,1.09-0.12,1.33-0.12c0.24,0,0.81-0.16,1.69-0.48c0.88-0.32,1.41-0.48,1.57-0.48
		c0.97-0.16,1.65,0.16,2.06,0.97c0.4,0.81,0.44,1.69,0.12,2.66c-0.81,2.9-1.69,5.08-2.66,6.53c-1.45,2.58-3.55,6.13-6.29,10.65
		c-2.75,4.52-4.44,7.34-5.08,8.47c-0.16,0.33-0.48,0.89-0.97,1.69c-0.48,0.81-0.81,1.33-0.97,1.57c-0.16,0.24-0.45,0.81-0.85,1.69
		c-0.4,0.89-0.53,1.54-0.36,1.94c0.16,0.4,0.24,1.09,0.24,2.06c0.16,1.29,0.24,2.22,0.24,2.78c0,0.57-0.08,1.49-0.24,2.78
		c-0.16,1.29-0.24,2.18-0.24,2.66c0.32-0.48,0.64-0.88,0.97-1.21c0.16,0.16,0.24,0.33,0.24,0.48c0,0.48-0.08,1.13-0.24,1.94
		c-0.16,0.81-0.33,1.61-0.48,2.42c-0.16,0.81-0.33,1.54-0.48,2.18C81,77.6,81.08,78.4,81.4,79.37c0.16,0.97,1.13,4.6,2.9,10.89
		c2.74-2.09,4.19-3.15,4.36-3.15c7.58-6.29,11.62-9.6,12.1-9.92c0.16-0.16,1.45-0.56,3.87-1.21l3.63-1.21
		c17.26-12.26,27.83-20,31.7-23.23c0.97-0.64,1.94-1.53,2.9-2.66c0.97-1.13,1.77-2.18,2.42-3.15c0.64-0.97,1.45-2.14,2.42-3.51
		c0.97-1.37,1.69-2.46,2.18-3.27c0.16,0,0.88-1.05,2.18-3.15c0,1.45,0.08,3.23,0.24,5.32c0.16,0.16,0.32,0.28,0.48,0.36
		c0.16,0.08,0.24,0.2,0.24,0.36c0.81-1.45,2.42-2.42,4.84-2.9s4.03-1.21,4.84-2.18c0.97-0.97,2.38-1.05,4.24-0.24
		c1.85,0.81,2.94,1.94,3.27,3.39c0.16,0.33,0.36,0.69,0.6,1.09c0.24,0.4,0.44,0.85,0.6,1.33c0.16,0.48,0.24,0.89,0.24,1.21
		C171.67,43.72,171.34,45,170.7,47.42z M31.55,93.4l8.23-16.94c-0.48-0.16-0.73-0.32-0.73-0.48c-1.94,3.87-4.76,9.6-8.47,17.18
		c0.16,0,0.32,0.04,0.48,0.12C31.23,93.37,31.39,93.4,31.55,93.4z"/>
		<path class="st0" d="M221.83,21.53c1.13,0.65,1.85,1.49,2.18,2.54c0.32,1.05,0.4,1.98,0.24,2.78c-0.16,0.81-0.57,1.86-1.21,3.15
		c-4.03,8.23-6.78,14.28-8.23,18.15c-1.13,2.75-2.62,6.74-4.48,11.98c-1.86,5.24-3.19,9-3.99,11.25
		c-2.26,5.65-4.68,11.29-7.26,16.94c-2.58,5.65-7.42,15.89-14.52,30.73c-0.16,0.33-1.78,3.47-4.84,9.44L179,129.7
		c-1.13,0.16-2.06,0.65-2.78,1.45c-0.73,0.81-1.33,1.86-1.81,3.15c-0.48,1.29-0.89,2.22-1.21,2.78c-0.33,0.57-0.73,1.25-1.21,2.06
		c-0.48,0.81-0.97,1.61-1.45,2.42c-0.48,0.81-0.97,1.54-1.45,2.18c0-0.48,0.16-1.21,0.48-2.18c0.32-0.97,0.56-1.69,0.73-2.18
		c-0.16,0-0.4-0.08-0.73-0.24c-2.1,3.55-3.15,5.41-3.15,5.57c-11.78,25.33-17.91,38.4-18.39,39.2c-0.48,0.97-1.13,2.06-1.94,3.27
		c-0.81,1.21-1.69,2.46-2.66,3.75c-0.97,1.29-1.77,2.34-2.42,3.15c-0.32,0.64-0.88,1.57-1.69,2.78c-0.81,1.21-1.37,2.14-1.69,2.78
		c-0.97,1.29-2.02,2.26-3.15,2.9c0.33-1.29,0.81-3.15,1.45-5.57l-0.48-0.48c-1.77,1.77-2.74,2.74-2.9,2.9
		c-2.09,1.29-4.44,2.5-7.02,3.63c-0.64-0.65-1.09-1.21-1.33-1.69c-0.24-0.48-0.44-0.89-0.6-1.21c-0.32-0.97-0.36-2.38-0.12-4.23
		c0.24-1.86,0.36-3.19,0.36-3.99c0-0.81,0.28-2.1,0.85-3.87c0.57-1.78,0.97-3.02,1.21-3.75c0.24-0.73,0.73-1.98,1.45-3.75
		c0.73-1.77,1.25-3.06,1.57-3.87c0-0.16,0.08-0.44,0.24-0.85c0.16-0.4,0.28-0.73,0.36-0.97c0.08-0.24,0.16-0.52,0.24-0.85
		c0.08-0.32,0.04-0.61-0.12-0.85c-0.16-0.24-0.36-0.52-0.6-0.85c-0.24-0.32-0.6-0.56-1.09-0.73c0.81-2.26,1.21-3.47,1.21-3.63
		c0-1.45,0.12-2.86,0.36-4.23c0.24-1.37,0.69-2.86,1.33-4.48c0.65-1.61,1.13-2.86,1.45-3.75c0.33-0.88,0.97-2.34,1.94-4.36
		c0.97-2.02,1.61-3.27,1.94-3.75c0-0.16,0.6-1.45,1.81-3.87c1.21-2.42,2.06-4.27,2.54-5.57c0.65-1.77,1.45-4.31,2.42-7.62
		c0.97-3.3,1.69-5.6,2.18-6.9c0.16-0.64,0.57-1.45,1.21-2.42c0.65-0.97,1.05-1.69,1.21-2.18c0.33-0.64,1.69-3.87,4.11-9.68
		l0.73-1.45c1.13-0.81,2.02-1.81,2.66-3.02c0.64-1.21,1.29-2.58,1.94-4.11c0.64-1.53,1.21-2.7,1.69-3.51c1.13,0,2.02-0.12,2.66-0.36
		c0.64-0.24,1.13-0.68,1.45-1.33c0.32-0.64,0.48-1.53,0.48-2.66c-0.16,0.33-0.4,0.73-0.73,1.21c-0.32,0.48-0.57,0.89-0.73,1.21
		l-0.48-0.73c-0.33-1.77-0.08-3.27,0.73-4.48c0.81-1.21,2.02-1.89,3.63-2.06c0.48,0,0.89-0.32,1.21-0.97
		c0.97-1.45,2.98-5.32,6.05-11.62c0.16-0.64,0.52-1.61,1.09-2.9c0.56-1.29,1.05-2.34,1.45-3.15c0.4-0.81,0.97-1.73,1.69-2.78
		c0.73-1.05,1.49-1.89,2.3-2.54c0.81-0.64,1.45-1.41,1.94-2.3c0.48-0.88,1.13-2.18,1.94-3.87c0.81-1.69,1.29-2.62,1.45-2.78
		c0.64-1.61,1.81-4.23,3.51-7.86c1.69-3.63,3.1-6.33,4.23-8.11c0.16-0.48,0.4-0.85,0.73-1.09c0.32-0.24,0.73-0.52,1.21-0.85
		c0.48-0.32,0.88-0.64,1.21-0.97c0,0.16,0.08,0.33,0.24,0.48c0.16,0.16,0.32,0.24,0.48,0.24c-0.16,0.33-0.28,0.6-0.36,0.85
		c-0.08,0.24-0.16,0.53-0.24,0.85c-0.08,0.33-0.12,0.65-0.12,0.97c0.32,0,0.56,0.08,0.73,0.24c2.26-4.36,3.63-6.94,4.11-7.74
		c0-0.16-0.16-0.32-0.48-0.48c-0.16,0.16-0.36,0.36-0.6,0.6c-0.24,0.24-0.45,0.45-0.6,0.6h-0.24l-0.24-0.24
		c2.42-4.68,3.71-7.18,3.87-7.5c1.13-2.58,1.94-4.68,2.42-6.29c0.32-0.97,0.52-1.49,0.6-1.57c0.08-0.08,0.6,0.12,1.57,0.6
		c0.48-0.16,0.93-0.32,1.33-0.48c0.4-0.16,0.68-0.24,0.85-0.24c1.45-0.16,2.5,0,3.15,0.48c0.16,0,0.4,0.81,0.73,2.42
		c0.16,0.33,0.56,1.86,1.21,4.6C216.35,23.47,218.93,22.5,221.83,21.53z M161.57,107.92c2.26-5.65,2.66-8.23,1.21-7.74
		c-0.97,0.48-2.1,2.1-3.39,4.84c-0.48,1.29-2.5,6.29-6.05,15c0,0.16-0.16,0.65-0.48,1.45c0.48-0.48,0.81-0.81,0.97-0.97
		c-1.94,3.87-4.36,8.71-7.26,14.52c0.81-2.42,1.21-3.71,1.21-3.87c1.29-2.9,1.78-4.36,1.45-4.36c-0.81,0.33-2.34,3.15-4.6,8.47
		c-0.48,1.13-0.64,1.78-0.48,1.94c-0.16,1.94-0.56,3.99-1.21,6.17c-0.64,2.18-1.21,3.87-1.69,5.08c-0.48,1.21-1.29,2.95-2.42,5.2
		c-1.13,2.26-1.77,3.63-1.94,4.11c-2.74,6.13-4.36,10.16-4.84,12.1c0.48-0.32,1.29-0.88,2.42-1.69c1.13-0.81,1.94-1.37,2.42-1.69
		c1.78-5.16,2.75-7.82,2.9-7.99c0.81-1.61,1.66-3.43,2.54-5.44c0.89-2.02,1.81-4.31,2.78-6.9c0.97-2.58,1.69-4.52,2.18-5.81
		c3.23-7.58,5.32-12.18,6.29-13.79C154.07,125.92,156.73,119.7,161.57,107.92z"/>
		<path class="st0" d="M332.3,105.02c0.97,0,1.45,0.4,1.45,1.21c0,0.81-0.33,1.45-0.97,1.94c-1.45,1.78-3.47,3.87-6.05,6.29
		c-9.84,9.36-17.02,16.13-21.54,20.33c-0.33,0.16-3.47,2.82-9.44,7.99c1.45-0.32,3.23-0.73,5.32-1.21c0.32,0.16,0.48,0.33,0.48,0.48
		c-4.68,3.55-7.26,5.41-7.74,5.57c-2.26,1.45-6.21,3.71-11.86,6.78c-3.23,1.61-5.97,2.9-8.23,3.87c-7.74,3.23-12.67,5.08-14.76,5.57
		c-1.61,0.48-3.99,0.89-7.14,1.21c-3.15,0.33-5.37,0.65-6.65,0.97c-5.32,1.13-13.23,0.73-23.72-1.21
		c-10.16-1.94-17.91-7.74-23.23-17.42c-0.16,0-1.05-0.88-2.66-2.66c1.13-0.16,1.37-1.13,0.73-2.9c-3.87-10-3.47-23.07,1.21-39.2
		c0.65-2.42,1.94-5.69,3.87-9.8c1.94-4.11,3.06-6.73,3.39-7.86c1.29-2.9,2.66-5.73,4.11-8.47c1.45-2.74,3.51-5.69,6.17-8.83
		c2.66-3.15,4.51-5.36,5.57-6.65c1.05-1.29,3.51-3.91,7.38-7.87c3.87-3.95,5.97-6.17,6.29-6.65c9.35-9.84,20.89-16.37,34.61-19.6
		c3.87-0.97,6.21-1.45,7.02-1.45c0.32-0.16,0.81-0.04,1.45,0.36c0.64,0.4,1.05,0.6,1.21,0.6c0.81,0.33,1.45,0.4,1.94,0.24
		c4.03-1.45,7.18-0.88,9.44,1.69c1.94,2.26,3.71,4.11,5.32,5.57c0.97,0.81,2.58,1.78,4.84,2.9c0.16,0,0.64-0.4,1.45-1.21
		c0.97-0.97,1.53-1.45,1.69-1.45c-0.16,0.65-0.48,1.57-0.97,2.78s-0.89,2.14-1.21,2.78c0.16,0.16,0.36,0.28,0.6,0.36
		c0.24,0.08,0.44,0.2,0.6,0.36c2.9-3.55,4.44-5.48,4.6-5.81c3.06-4.68,5.72-9.11,7.99-13.31c0.16,0,0.4-1.45,0.73-4.36
		c-0.16,0-0.4,0-0.73,0c-0.33,0-0.57,0-0.73,0c0.16,1.13,0.32,1.94,0.48,2.42c-1.78-0.16-3.47,0.77-5.08,2.78
		c-1.61,2.02-2.58,3.19-2.9,3.51c0.97-1.45,2.1-3.83,3.39-7.14c1.29-3.3,2.58-5.77,3.87-7.38c1.29-1.29,2.5-1.77,3.63-1.45
		c0.16,0.16,1.25,0.16,3.27,0c2.02-0.16,3.18-0.24,3.51-0.24c0.48,0,2.5,0.08,6.05,0.24c0.16,0,0.32,0.08,0.48,0.24
		c0.81,0.33,1.41,1.57,1.81,3.75c0.4,2.18,0.36,3.67-0.12,4.48c-1.13,1.94-1.86,3.71-2.18,5.32c0.48-0.64,1.21-1.61,2.18-2.9
		c-0.16,0.33-0.81,2.46-1.94,6.41c-1.13,3.96-2.42,6.82-3.87,8.59c-0.97,1.13-1.94,2.46-2.9,3.99c-0.97,1.54-1.98,3.11-3.02,4.72
		c-1.05,1.61-1.98,2.99-2.78,4.11c-1.13,1.45-2.7,3.51-4.72,6.17c-2.02,2.66-3.51,4.64-4.48,5.93c-0.81,0.97-1.86,2.46-3.15,4.48
		c-1.29,2.02-2.02,3.19-2.18,3.51c-1.29,1.94-3.15,2.75-5.57,2.42c-1.29-0.16-2.18,0.08-2.66,0.73c-3.23,3.87-8.39,5.65-15.49,5.32
		c0.32-0.81,0.73-1.97,1.21-3.51c0.48-1.53,0.88-2.74,1.21-3.63c0.32-0.88,0.56-2.02,0.73-3.39c0.16-1.37,0.24-2.62,0.24-3.75
		c-0.16-0.81-0.4-5.89-0.73-15.25c-5.17,1.29-10.89,4.6-17.18,9.92c-0.97,0.97-2.26,2.14-3.87,3.51c-1.61,1.37-3.02,2.58-4.23,3.63
		c-1.21,1.05-2.54,2.18-3.99,3.39c-1.45,1.21-2.9,2.3-4.36,3.27c-7.1,4.84-13.07,12.02-17.91,21.54
		c-6.62,12.75-10.49,23.15-11.62,31.22c-1.13,8.55-0.4,14.92,2.18,19.12l2.9,2.9c0.64,0.65,1.13,1.21,1.45,1.69l0.24,0.48v0.24
		c0.97,0.16,2.22,0.73,3.75,1.69c1.53,0.97,2.94,1.45,4.24,1.45c5.65,0.16,11.94-1.53,18.88-5.08c0.64-0.32,2.7-1.41,6.17-3.27
		c3.47-1.85,5.65-2.98,6.53-3.39c0.89-0.4,2.86-1.41,5.93-3.02c3.06-1.61,5.2-2.78,6.41-3.51s3.15-1.81,5.81-3.27
		c2.66-1.45,4.8-2.66,6.41-3.63c1.61-0.97,3.51-2.14,5.69-3.51c2.18-1.37,4.24-2.7,6.17-3.99c1.94-1.29,3.87-2.58,5.81-3.87
		c0.81-0.64,2.1-1.81,3.87-3.51c1.77-1.69,3.06-2.86,3.87-3.51c2.42-1.61,4.84-2.18,7.26-1.69c0.48,0.16,1.05,0,1.69-0.48
		c0.64-0.48,1.41-0.76,2.3-0.85c0.88-0.08,1.85-0.08,2.9,0C330.81,104.98,331.65,105.02,332.3,105.02z M228.48,65.09
		c-1.45,1.94-1.37,2.82,0.24,2.66c2.09-0.16,3.71-0.81,4.84-1.94c3.87-5,6.69-8.31,8.47-9.92c1.61-1.61,3.59-3.18,5.93-4.72
		c2.34-1.53,4.76-3.06,7.26-4.6c2.5-1.53,4.48-2.78,5.93-3.75c2.9-2.26,4.68-4.92,5.32-7.99c0.32-1.29-0.08-1.77-1.21-1.45
		c-0.81,0.16-2.02,0.89-3.63,2.18c-1.13,0.97-3.11,2.18-5.93,3.63c-2.82,1.45-4.72,2.58-5.69,3.39c-2.26,1.61-4.36,3.35-6.29,5.2
		c-1.94,1.86-3.31,3.19-4.11,3.99c-0.81,0.81-2.34,2.62-4.6,5.45c-2.26,2.82-3.55,4.48-3.87,4.96c-0.48,0.48-0.81,0.81-0.97,0.97
		c-0.48,0.48-0.97,1.05-1.45,1.69C228.56,64.85,228.48,64.93,228.48,65.09z"/>
		<path class="st0" d="M541.14,105.02c0.97,0,1.45,0.4,1.45,1.21c0,0.81-0.33,1.45-0.97,1.94c-1.45,1.78-3.47,3.87-6.05,6.29
		c-9.84,9.36-17.02,16.13-21.54,20.33c-0.33,0.16-3.47,2.82-9.44,7.99c1.45-0.32,3.23-0.73,5.32-1.21c0.32,0.16,0.48,0.33,0.48,0.48
		c-4.68,3.55-7.26,5.41-7.74,5.57c-2.26,1.45-6.21,3.71-11.86,6.78c-3.23,1.61-5.97,2.9-8.23,3.87c-7.74,3.23-12.67,5.08-14.76,5.57
		c-1.61,0.48-3.99,0.89-7.14,1.21c-3.15,0.33-5.37,0.65-6.65,0.97c-5.32,1.13-13.23,0.73-23.72-1.21
		c-10.16-1.94-17.91-7.74-23.23-17.42c-0.16,0-1.05-0.88-2.66-2.66c1.13-0.16,1.37-1.13,0.73-2.9c-3.87-10-3.47-23.07,1.21-39.2
		c0.65-2.42,1.94-5.69,3.87-9.8c1.94-4.11,3.06-6.73,3.39-7.86c1.29-2.9,2.66-5.73,4.11-8.47c1.45-2.74,3.51-5.69,6.17-8.83
		c2.66-3.15,4.51-5.36,5.57-6.65c1.05-1.29,3.51-3.91,7.38-7.87c3.87-3.95,5.97-6.17,6.29-6.65c9.35-9.84,20.89-16.37,34.61-19.6
		c3.87-0.97,6.21-1.45,7.02-1.45c0.32-0.16,0.81-0.04,1.45,0.36c0.64,0.4,1.05,0.6,1.21,0.6c0.81,0.33,1.45,0.4,1.94,0.24
		c4.03-1.45,7.18-0.88,9.44,1.69c1.94,2.26,3.71,4.11,5.32,5.57c0.97,0.81,2.58,1.78,4.84,2.9c0.16,0,0.64-0.4,1.45-1.21
		c0.97-0.97,1.53-1.45,1.69-1.45c-0.16,0.65-0.48,1.57-0.97,2.78s-0.89,2.14-1.21,2.78c0.16,0.16,0.36,0.28,0.6,0.36
		c0.24,0.08,0.44,0.2,0.6,0.36c2.9-3.55,4.44-5.48,4.6-5.81c3.06-4.68,5.72-9.11,7.99-13.31c0.16,0,0.4-1.45,0.73-4.36
		c-0.16,0-0.4,0-0.73,0c-0.33,0-0.57,0-0.73,0c0.16,1.13,0.32,1.94,0.48,2.42c-1.78-0.16-3.47,0.77-5.08,2.78
		c-1.61,2.02-2.58,3.19-2.9,3.51c0.97-1.45,2.1-3.83,3.39-7.14c1.29-3.3,2.58-5.77,3.87-7.38c1.29-1.29,2.5-1.77,3.63-1.45
		c0.16,0.16,1.25,0.16,3.27,0c2.02-0.16,3.18-0.24,3.51-0.24c0.48,0,2.5,0.08,6.05,0.24c0.16,0,0.32,0.08,0.48,0.24
		c0.81,0.33,1.41,1.57,1.81,3.75c0.4,2.18,0.36,3.67-0.12,4.48c-1.13,1.94-1.86,3.71-2.18,5.32c0.48-0.64,1.21-1.61,2.18-2.9
		c-0.16,0.33-0.81,2.46-1.94,6.41c-1.13,3.96-2.42,6.82-3.87,8.59c-0.97,1.13-1.94,2.46-2.9,3.99c-0.97,1.54-1.98,3.11-3.02,4.72
		c-1.05,1.61-1.98,2.99-2.78,4.11c-1.13,1.45-2.7,3.51-4.72,6.17c-2.02,2.66-3.51,4.64-4.48,5.93c-0.81,0.97-1.86,2.46-3.15,4.48
		c-1.29,2.02-2.02,3.19-2.18,3.51c-1.29,1.94-3.15,2.75-5.57,2.42c-1.29-0.16-2.18,0.08-2.66,0.73c-3.23,3.87-8.39,5.65-15.49,5.32
		c0.32-0.81,0.73-1.97,1.21-3.51c0.48-1.53,0.88-2.74,1.21-3.63c0.32-0.88,0.56-2.02,0.73-3.39c0.16-1.37,0.24-2.62,0.24-3.75
		c-0.16-0.81-0.4-5.89-0.73-15.25c-5.17,1.29-10.89,4.6-17.18,9.92c-0.97,0.97-2.26,2.14-3.87,3.51c-1.61,1.37-3.02,2.58-4.23,3.63
		c-1.21,1.05-2.54,2.18-3.99,3.39c-1.45,1.21-2.9,2.3-4.36,3.27c-7.1,4.84-13.07,12.02-17.91,21.54
		c-6.62,12.75-10.49,23.15-11.62,31.22c-1.13,8.55-0.4,14.92,2.18,19.12l2.9,2.9c0.64,0.65,1.13,1.21,1.45,1.69l0.24,0.48v0.24
		c0.97,0.16,2.22,0.73,3.75,1.69c1.53,0.97,2.94,1.45,4.24,1.45c5.65,0.16,11.94-1.53,18.88-5.08c0.64-0.32,2.7-1.41,6.17-3.27
		c3.47-1.85,5.65-2.98,6.53-3.39c0.89-0.4,2.86-1.41,5.93-3.02c3.06-1.61,5.2-2.78,6.41-3.51s3.15-1.81,5.81-3.27
		c2.66-1.45,4.8-2.66,6.41-3.63c1.61-0.97,3.51-2.14,5.69-3.51c2.18-1.37,4.24-2.7,6.17-3.99c1.94-1.29,3.87-2.58,5.81-3.87
		c0.81-0.64,2.1-1.81,3.87-3.51c1.77-1.69,3.06-2.86,3.87-3.51c2.42-1.61,4.84-2.18,7.26-1.69c0.48,0.16,1.05,0,1.69-0.48
		c0.64-0.48,1.41-0.76,2.3-0.85c0.88-0.08,1.85-0.08,2.9,0C539.65,104.98,540.5,105.02,541.14,105.02z M437.32,65.09
		c-1.45,1.94-1.37,2.82,0.24,2.66c2.09-0.16,3.71-0.81,4.84-1.94c3.87-5,6.69-8.31,8.47-9.92c1.61-1.61,3.59-3.18,5.93-4.72
		c2.34-1.53,4.76-3.06,7.26-4.6c2.5-1.53,4.48-2.78,5.93-3.75c2.9-2.26,4.68-4.92,5.32-7.99c0.32-1.29-0.08-1.77-1.21-1.45
		c-0.81,0.16-2.02,0.89-3.63,2.18c-1.13,0.97-3.11,2.18-5.93,3.63c-2.82,1.45-4.72,2.58-5.69,3.39c-2.26,1.61-4.36,3.35-6.29,5.2
		c-1.94,1.86-3.31,3.19-4.11,3.99c-0.81,0.81-2.34,2.62-4.6,5.45c-2.26,2.82-3.55,4.48-3.87,4.96c-0.48,0.48-0.81,0.81-0.97,0.97
		c-0.48,0.48-0.97,1.05-1.45,1.69C437.4,64.85,437.32,64.93,437.32,65.09z"/>
		<path class="st0" d="M675.84,34.36c-4.2,9.68-7.74,17.51-10.65,23.47c-0.48,0.81-0.57,2.1-0.24,3.87c0.32,1.78,0.32,2.99,0,3.63
		l-0.48,1.69c-0.33,0.16-1.61,0.97-3.87,2.42c1.61,0.48,3.31,0.89,5.08,1.21l-0.48,2.66c-1.61,0.16-3.23,1.17-4.84,3.02
		c-1.61,1.86-2.82,3.03-3.63,3.51c-0.65,0.33-0.97,0.57-0.97,0.73c-0.48,1.13-1.05,2.42-1.69,3.87c-0.65,1.45-1.25,2.87-1.81,4.23
		c-0.57,1.37-1.09,2.62-1.57,3.75c-0.48,0.97-1.21,2.42-2.18,4.36c-0.97,1.94-1.69,3.47-2.18,4.6c-2.26,5.17-3.87,9.52-4.84,13.07
		c0.16-0.16,0.44-0.44,0.85-0.85c0.4-0.4,0.68-0.6,0.85-0.6c0.16,0.16,0.32,0.33,0.48,0.48c-2.1,4.68-3.23,7.18-3.39,7.5
		c-0.16,0.81-0.53,2.14-1.09,3.99c-0.57,1.86-1.09,3.27-1.57,4.24v-1.69l-0.48-0.24c-1.61,5.17-2.5,7.99-2.66,8.47
		c-1.45,4.84-2.58,8.23-3.39,10.16c-0.81,2.42-1.69,4.11-2.66,5.08c0,0.16-1.29,0.97-3.87,2.42c-0.16,0-0.28-0.08-0.36-0.24
		c-0.08-0.16-0.2-0.32-0.36-0.48c-0.97,2.75-1.54,4.2-1.69,4.36c-1.61,2.1-2.99,3.39-4.11,3.87c-0.81,0.33-2.06,0.77-3.75,1.33
		c-1.69,0.57-3.07,1.01-4.11,1.33c-1.05,0.33-2.22,0.85-3.51,1.57c-1.29,0.73-2.42,1.49-3.39,2.3c-0.16,0-0.4-0.08-0.73-0.24
		c-0.65-2.42-1.05-4.03-1.21-4.84c-0.48,0.65-1.21,1.69-2.18,3.15c-1.94-1.45-2.99-3.06-3.15-4.84c-0.16-1.77,0.12-3.79,0.85-6.05
		c0.73-2.26,0.93-4.03,0.61-5.32c-1.13,2.9-1.69,4.44-1.69,4.6c-0.16,0.33-0.89,2.34-2.18,6.05c0-1.45-0.08-2.34-0.24-2.66
		c-0.16-0.32-0.08-1.13,0.24-2.42c0.32-1.29,0.52-2.06,0.6-2.3c0.08-0.24,0.36-0.93,0.85-2.06c0.48-1.13,0.73-1.77,0.73-1.94
		c0.48-1.45,1.09-3.02,1.81-4.72c0.73-1.69,1.37-3.23,1.94-4.6c0.56-1.37,1.21-2.94,1.94-4.72c0.73-1.77,1.33-3.3,1.81-4.6
		c1.13-3.06,2.78-7.42,4.96-13.07c2.18-5.65,3.51-9.11,3.99-10.41c0-0.16,0.32-0.64,0.97-1.45c0.32,0.16,0.56,0.24,0.73,0.24
		c-1.29,3.39-2.26,5.97-2.9,7.74c0.16,0,0.4,0.08,0.73,0.24c3.87-7.58,7.99-15.97,12.34-25.17c-0.97,0.16-1.9,0.2-2.78,0.12
		c-0.89-0.08-1.81-0.08-2.78,0c-0.97,0.08-1.78,0.28-2.42,0.6c-1.45,0.48-4.68,0.89-9.68,1.21c-1.94,0-6.78,0.65-14.52,1.94
		c-3.23,0.48-5.97,1.05-8.23,1.69c-0.65,0.16-1.37,0.89-2.18,2.18c-1.13,2.26-3.15,6.01-6.05,11.25c-2.9,5.24-5.17,9.24-6.78,11.98
		c-1.61,3.07-3.39,5.41-5.32,7.02c-2.42,2.1-5.08,5.81-7.99,11.13c-2.26,4.2-6.29,12.26-12.1,24.2c-0.16,0.48-0.33,0.97-0.48,1.45
		c-0.16,0.48-0.28,1.01-0.36,1.57c-0.08,0.57-0.2,1.01-0.36,1.33c-0.33,0.97-0.73,1.69-1.21,2.18c-0.97,1.13-4.44,4.6-10.41,10.41
		c-0.64-3.06-0.97-4.68-0.97-4.84c0.16-0.32,1.05-2.18,2.66-5.57c-6.29,2.42-9.68,3.79-10.16,4.11c-0.16,0-0.4,0.08-0.73,0.24
		c-0.97,0.65-1.77,0.89-2.42,0.73c-0.64-0.16-1.05-0.97-1.21-2.42l-1.94-0.48c2.9-2.42,4.28-4.76,4.11-7.02
		c-0.16-0.16-0.4-0.32-0.73-0.48c-0.16,0.16-0.44,0.48-0.85,0.97c-0.4,0.48-0.68,0.89-0.85,1.21c9.36-22.59,17.83-40.41,25.41-53.48
		c0-0.16,0.73-1.61,2.18-4.36c-1.29,0.16-2.75,0.33-4.36,0.48c-1.61,0.16-3.23,0.36-4.84,0.6c-1.61,0.24-3.06,0.45-4.36,0.6
		c1.78-2.26,4.84-4.07,9.2-5.44c4.36-1.37,7.18-2.7,8.47-3.99c-2.1,0-5.2,0.4-9.32,1.21c-4.11,0.81-7.22,1.21-9.32,1.21
		c0-0.16-0.08-0.48-0.24-0.97c1.45-0.97,2.75-1.85,3.87-2.66c-2.74-0.16-6.29,0.53-10.65,2.06c-4.36,1.54-6.86,2.3-7.5,2.3
		c-0.97-2.09-2.02-4.19-3.15-6.29c0.33-0.16,1.05-0.36,2.18-0.6c1.13-0.24,1.98-0.44,2.54-0.6c0.57-0.16,1.17-0.6,1.82-1.33
		c0.65-0.73,1.05-1.65,1.21-2.78c0-0.16-0.08-0.28-0.24-0.36c-0.16-0.08-0.36-0.2-0.6-0.36c-0.24-0.16-0.44-0.32-0.6-0.48l0.48-0.73
		c0.16,0,0.97-0.2,2.42-0.6c1.45-0.4,2.58-0.76,3.39-1.09c0.97-0.16,1.54-0.28,1.69-0.36c0.16-0.08,0.33-0.32,0.48-0.73
		c0.16-0.4,0.08-0.85-0.24-1.33c-0.16,0-0.16-0.16,0-0.48c3.55-1.13,5.49-1.69,5.81-1.69c0.97,0,2.26,0.28,3.87,0.85
		c1.61,0.57,2.66,0.93,3.15,1.09c3.39,0.81,6.37,0.33,8.95-1.45c0.64-0.48,1.41-0.85,2.3-1.09c0.88-0.24,1.89-0.52,3.02-0.85
		c1.13-0.32,2.02-0.56,2.66-0.73c1.29-0.64,2.34-1.53,3.15-2.66c1.77-2.58,4.27-6.61,7.5-12.1c0-0.16,0.08-1.05,0.24-2.66
		c-0.65,0.97-1.29,2.02-1.94,3.15c0.97-2.74,2.34-5.6,4.11-8.59c1.77-2.98,3.39-5.4,4.84-7.26c1.45-1.85,3.55-4.44,6.29-7.74
		c2.74-3.3,4.68-5.6,5.81-6.9c-0.16,0.16-0.28,0.48-0.36,0.97c-0.08,0.48-0.2,0.81-0.36,0.97c0.16,0,0.4,0.16,0.73,0.48
		c1.61-2.58,3.95-6.45,7.02-11.62c3.06-5.16,5.4-9.03,7.02-11.62c0-0.16-0.08-0.28-0.24-0.36c-0.16-0.08-0.33-0.12-0.48-0.12
		c-0.16,0-0.53,0.08-1.09,0.24c-0.57,0.16-0.93,0.24-1.09,0.24V13.3c2.26-0.64,4.52-1.29,6.78-1.94c0.81-0.32,1.33-0.36,1.57-0.12
		c0.24,0.24,1.49,1.25,3.75,3.02c1.29-0.64,2.82-1.37,4.6-2.18c0.48,0.97,0.81,1.45,0.97,1.45c1.94,1.29,2.26,3.15,0.97,5.57
		c-1.13,2.26-2.46,4.96-3.99,8.11c-1.54,3.15-3.02,6.25-4.48,9.32c-1.45,3.07-2.82,5.81-4.11,8.23c-1.78,3.87-2.99,7.18-3.63,9.92
		c0.16-0.16,0.4-0.4,0.73-0.73c0.32-0.32,0.56-0.56,0.73-0.73c0.16,0.16,0.32,0.28,0.48,0.36c0.16,0.08,0.32,0.12,0.48,0.12
		c-1.13,3.07-1.78,4.76-1.94,5.08c0.48,0.48,0.76,0.97,0.85,1.45c0.08,0.48,0.04,0.89-0.12,1.21c-0.16,0.33-0.45,0.81-0.85,1.45
		c-0.4,0.65-0.69,1.13-0.85,1.45c-0.97,2.1-1.33,3.35-1.09,3.75c0.24,0.4,1.41,0.6,3.51,0.6c6.13,0,10.16-0.32,12.1-0.97
		c4.36-1.45,10.41-2.66,18.15-3.63c3.23-0.32,5.57-1.94,7.02-4.84c0.48-0.97,1.05-2.1,1.69-3.39c0.64-1.29,1.29-2.58,1.94-3.87
		c0.64-1.29,1.21-2.42,1.69-3.39c0-0.16,0.16-0.44,0.48-0.85c0.32-0.4,0.52-0.73,0.6-0.97c0.08-0.24,0.04-0.48-0.12-0.73
		c-0.16-0.24-0.57-0.52-1.21-0.85c-0.16,0-0.24-0.08-0.24-0.24c1.94-7.9,3.06-12.18,3.39-12.83c0.32-0.97,0.64-2.38,0.97-4.24
		c0.32-1.85,0.68-3.47,1.09-4.84c0.4-1.37,1.17-2.62,2.3-3.75l0.97-1.21c0.48,2.1,0.81,3.47,0.97,4.11c0.16,0.16,0.4,0.24,0.73,0.24
		c0.32-0.48,0.76-1.25,1.33-2.3c0.56-1.05,1.01-1.89,1.33-2.54c0.32-0.64,0.81-1.25,1.45-1.82c0.64-0.56,1.41-0.81,2.3-0.73
		c0.88,0.08,1.89,0.45,3.02,1.09c3.87-2.42,6.13-3.87,6.78-4.36c0.64-0.32,1.45,0.16,2.42,1.45c1.45,1.94,3.79,3.07,7.02,3.39
		c0.16,1.61,0.28,2.87,0.36,3.75c0.08,0.89-0.12,2.14-0.6,3.75c-0.48,1.61-0.89,2.78-1.21,3.51c-0.33,0.73-0.89,1.86-1.69,3.39
		C676.72,32.62,676.16,33.71,675.84,34.36z"/>
		<path class="st0" d="M787.93,34.6c1.45-0.32,2.42-0.48,2.9-0.48c0,0.48-0.16,2.75-0.48,6.78c-0.16-0.16-0.65-0.4-1.45-0.73
		c-0.33,0.97-0.77,1.78-1.33,2.42c-0.57,0.65-1.05,1.17-1.45,1.57c-0.4,0.4-1.13,0.73-2.18,0.97c-1.05,0.24-1.74,0.4-2.06,0.48
		c-0.32,0.08-1.13,0.2-2.42,0.36c-1.29,0.16-2.02,0.24-2.18,0.24c-3.23,0.48-8.79,1.25-16.7,2.3c-7.91,1.05-13.96,1.9-18.15,2.54
		c-2.58,0.33-5,0.48-7.26,0.48c-3.23,0-5.17,1.29-5.81,3.87l-1.69,1.69c0.16-0.64,0.4-1.45,0.73-2.42c0.32-0.97,0.56-1.69,0.72-2.18
		c-1.29,0.16-2.26,0.69-2.9,1.57c-0.65,0.89-1.29,1.81-1.94,2.78c-0.65,0.97-1.37,1.69-2.18,2.18c-0.16-0.16-0.57-0.48-1.21-0.97
		c-0.33,0.48-0.65,1.17-0.97,2.06c-0.32,0.89-0.57,1.49-0.73,1.81c0.32,0.16,0.48,0.33,0.48,0.48c0.16-0.16,0.52-0.48,1.09-0.97
		c0.56-0.48,1.09-0.88,1.57-1.21c-3.55,7.1-5.57,11.13-6.05,12.1c0,0.16-0.24,1.29-0.73,3.39c1.61-0.32,2.58-0.48,2.9-0.48
		c5.97-0.81,10-1.37,12.1-1.69l1.21,1.45c0.48-0.16,1.17-0.48,2.06-0.97c0.88-0.48,1.41-0.81,1.57-0.97
		c3.55,0.48,5.4,0.73,5.57,0.73c2.42-0.48,6.05-1.17,10.89-2.06c4.84-0.88,8.47-1.49,10.89-1.81c0.16,0,2.18,0.24,6.05,0.73
		c0,0.16-0.04,0.36-0.12,0.61c-0.08,0.24-0.12,0.45-0.12,0.6c-1.29,0.33-3.23,0.69-5.81,1.09c-2.58,0.4-4.52,0.77-5.81,1.09
		l0.24,0.73h21.05c0.16,2.1,0.32,3.23,0.48,3.39c0.8,2.42-0.08,3.96-2.66,4.6c-0.81,0.16-2.1,0.33-3.87,0.48
		c-1.78,0.16-3.07,0.4-3.87,0.73c-0.48,0-1.05,0.57-1.69,1.69c-0.16,0.33-0.97,1.86-2.42,4.6c-0.16,0-0.41-0.08-0.73-0.24
		c0.8,0.97,1.21,1.54,1.21,1.69c0.32,0.81,0.32,1.45,0,1.94c-0.16,0.48-0.72,0.65-1.69,0.48c-0.16-0.16-0.53-0.32-1.09-0.48
		c-0.57-0.16-1.01-0.24-1.33-0.24c-0.33,0-0.69,0.08-1.09,0.24c-0.4,0.16-0.69,0.57-0.85,1.21c-0.65-0.16-1.13-0.32-1.45-0.48
		c-0.32-0.16-0.65-0.24-0.97-0.24l-1.7,0.24c0,0.16,1.29,0.89,3.87,2.18h-23.72c1.61-0.32,3.95-0.88,7.02-1.69c0-0.16,0-0.28,0-0.36
		c0-0.08,0-0.2,0-0.36c-5,0.65-7.66,1.05-7.98,1.21c-1.62,0.48-4.08,1.29-7.38,2.42c-3.31,1.13-5.77,1.94-7.38,2.42
		c-3.07,0.97-6.7,1.69-10.89,2.18c-1.78,0.16-3.07,0.33-3.87,0.48c-0.16,0.48-0.32,0.89-0.48,1.21c-0.33,0.81-0.85,2.14-1.57,3.99
		c-0.73,1.86-1.41,3.35-2.06,4.48c-0.65,1.13-1.29,2.1-1.94,2.9c-0.81,0.81-2.18,3.55-4.12,8.23c-0.32,0.65-0.72,1.69-1.21,3.15
		c-0.81,1.94-1.37,3.31-1.7,4.11v0.24c4.2,0.65,6.45,0.97,6.78,0.97c0.16,0,1.85-0.64,5.08-1.94l1.21-0.24
		c1.29,0.81,2.66,1.21,4.12,1.21c1.45,0,3.06-0.12,4.84-0.36c1.77-0.24,3.15-0.36,4.11-0.36c-0.97,0.33-2.1,0.65-3.39,0.97
		c-1.29,0.33-2.54,0.65-3.75,0.97c-1.21,0.33-2.3,0.57-3.27,0.73v0.73c1.77-0.16,4.27-0.52,7.5-1.09c3.23-0.56,5.72-1.01,7.5-1.33
		l-0.24-0.73h-3.14c0-0.48,0-0.93,0-1.33c0-0.4,0.16-0.68,0.48-0.85c0.32-0.16,0.56-0.28,0.73-0.36c0.16-0.08,0.48-0.16,0.97-0.24
		c0.48-0.08,0.8-0.12,0.97-0.12c0.48,0,1.21-0.08,2.18-0.24c0.97-0.16,1.77-0.32,2.42-0.48c0.97-0.16,2.5-0.52,4.6-1.09
		c2.09-0.56,3.55-0.93,4.36-1.09c0.48-0.16,1.13-0.16,1.94,0c0.32,0.16,2.26,0.57,5.81,1.21c2.42,0.16,3.71,0.24,3.87,0.24
		c0.48-0.16,1.09-0.32,1.82-0.48c0.72-0.16,1.37-0.32,1.94-0.48c0.56-0.16,1.13-0.24,1.69-0.24c0.56,0,1.17,0.08,1.82,0.24
		c0.64,0.16,1.29,0.48,1.94,0.97c-0.97,1.61-1.54,2.5-1.7,2.66c3.55,0.65,7.1,1.21,10.65,1.69l0.24,2.18
		c1.13,2.42,0.16,4.2-2.9,5.32c-0.32,0-2.42,0.57-6.29,1.69c-0.48,4.36-0.73,7.18-0.73,8.47c-6.94,2.26-10.73,3.47-11.37,3.63
		c-1.78,0.48-4.04,0.57-6.78,0.24c-0.97,0-1.98,0.04-3.03,0.12c-1.05,0.08-2.02,0.2-2.9,0.36c-0.89,0.16-1.86,0.36-2.9,0.6
		c-1.05,0.24-1.98,0.53-2.78,0.85c-0.81,0.33-1.74,0.6-2.78,0.85c-1.05,0.24-1.98,0.45-2.78,0.6c-0.16,0.16-1.37,0.57-3.63,1.21
		l-3.15-1.21c-2.1,0.48-5.12,1.33-9.08,2.54c-3.96,1.21-6.82,2.06-8.59,2.54c-4.68,1.29-10.73,2.82-18.15,4.6
		c-1.61,0.48-2.58,1.54-2.9,3.15c-0.97,4.68-3.23,7.1-6.78,7.26c-0.48,0-1.17,0.57-2.06,1.69c-0.89,1.13-1.57,1.86-2.06,2.18
		c-1.29,0.97-3.15,1.77-5.57,2.42c-0.48,0-1.21-0.57-2.18-1.69c0-0.16-0.48-1.21-1.45-3.15c-0.64,0.48-1.77,1.13-3.39,1.94
		c0.33-0.64,0.97-1.97,1.94-3.99c0.97-2.02,1.69-3.51,2.18-4.48c0-0.16-0.12-0.28-0.36-0.36c-0.24-0.08-0.44-0.2-0.6-0.36
		c-0.16,0.33-0.44,0.73-0.85,1.21c-0.4,0.48-0.68,0.89-0.85,1.21c-1.13-1.29-2.06-1.85-2.78-1.69c-0.73,0.16-1.21,0.57-1.45,1.21
		c-0.24,0.65-0.6,1.37-1.09,2.18c-0.48,0.81-0.97,1.21-1.45,1.21c-1.29-2.1-1.94-3.23-1.94-3.39c-0.48-1.29-0.56-2.34-0.24-3.15
		c0.33-0.97,0.85-2.5,1.57-4.6c0.73-2.09,1.33-3.63,1.81-4.6c0-0.32-0.24-1.29-0.73-2.9c0-0.16-0.08-1.05-0.24-2.66
		c-0.48-0.16-1.21-0.32-2.18-0.48l0.97-0.48c0.16,0,0.6-0.08,1.33-0.24c0.73-0.16,1.33-0.32,1.81-0.48c0-0.16,0.81-0.81,2.42-1.94
		l-2.66-1.21c-0.81-0.16-2.02-0.2-3.63-0.12c-1.61,0.08-2.74,0.04-3.39-0.12c-0.16,0-1.05-0.56-2.66-1.69c0-0.16-0.04-0.36-0.12-0.6
		c-0.08-0.24-0.12-0.44-0.12-0.6c7.26-3.06,11.22-4.68,11.86-4.84c3.71-0.97,5.93-1.73,6.65-2.3c0.73-0.56,1.33-1.41,1.82-2.54
		c-0.32,1.94-0.48,3.07-0.48,3.39c0.33-0.32,1.49-0.85,3.51-1.57c2.02-0.73,3.35-1.73,3.99-3.03l0.24-0.24
		c0.16-0.32,0.16-0.48,0-0.48c-0.33-0.81-0.36-1.57-0.12-2.3c0.24-0.73,0.56-1.29,0.97-1.69c0.4-0.4,0.85-0.88,1.33-1.45
		c0.48-0.56,0.88-1.09,1.21-1.57c0.48-1.13,1.21-2.5,2.18-4.11c0.16-1.29,0.08-2.58-0.24-3.87c-0.65-0.16,0.08-1.69,2.18-4.6
		c0.97-1.29,1.53-1.69,1.69-1.21c0,0.33-0.32,1.13-0.97,2.42l-0.48,2.42c3.06-4.84,4.92-7.74,5.57-8.71
		c-0.16,0.16-0.48,0.33-0.97,0.48l0.24-0.73l1.45-3.87c-2.58-0.16-5.17-0.32-7.74-0.48v-0.48c0.81-0.48,1.97-1.21,3.51-2.18
		c1.53-0.97,2.7-1.69,3.51-2.18c-0.97,0-2.5,0.08-4.6,0.24c-2.1,0.16-3.75,0.24-4.96,0.24s-2.66-0.16-4.36-0.48
		c-1.69-0.32-3.18-0.88-4.48-1.69c0.48-0.48,1.29-1.33,2.42-2.54c1.13-1.21,2.02-2.22,2.66-3.02h-2.42
		c0.16-0.16,0.45-0.73,0.85-1.69c0.4-0.97,0.76-1.49,1.09-1.57c0.32-0.08,1.13,0.28,2.42,1.09c0.16,0.16,0.44,0.24,0.85,0.24
		c0.4,0,0.81-0.04,1.21-0.12c0.4-0.08,0.88-0.2,1.45-0.36c0.56-0.16,1.01-0.24,1.33-0.24c0.32,0,0.76-0.08,1.33-0.24
		c0.56-0.16,1.05-0.28,1.45-0.36c0.4-0.08,0.85-0.16,1.33-0.24c0.48-0.08,0.97-0.16,1.45-0.24c0.48-0.08,0.89-0.12,1.21-0.12
		c2.26-0.32,3.95-1.69,5.08-4.11c0.64-1.13,3.95-7.26,9.92-18.39c0.16,0,0.56-0.88,1.21-2.66h-4.36c3.39-0.48,6.37-2.9,8.95-7.26
		c-1.78,0.16-4.88,0.81-9.32,1.94c-4.44,1.13-8.31,1.61-11.62,1.45c-3.31-0.16-6.5-1.29-9.56-3.39c0.48-0.32,1.01-0.68,1.57-1.09
		c0.56-0.4,0.93-0.68,1.09-0.85c-0.16-0.16-0.4-0.48-0.73-0.97c-0.33-0.48-0.57-0.81-0.73-0.97c1.45-2.09,2.26-3.3,2.42-3.63h-2.66
		c0.32-0.32,0.76-0.81,1.33-1.45c0.56-0.64,1.01-1.17,1.33-1.57c0.32-0.4,0.73-0.68,1.21-0.85c1.29-0.48,3.18-1.21,5.69-2.18
		c2.5-0.97,4.15-1.61,4.96-1.94c0.48-0.16,0.73-0.73,0.73-1.69c0.16-2.42,1.37-2.9,3.63-1.45c-0.97,0.65-1.61,1.05-1.94,1.21
		l0.73,0.73c0.32-0.16,1.37-0.88,3.15-2.18c0.64,0.97,1.37,1.49,2.18,1.57c0.8,0.08,1.73-0.12,2.78-0.6
		c1.05-0.48,1.89-0.64,2.54-0.48c-0.16-0.32-0.65-0.76-1.45-1.33c-0.81-0.56-1.45-1.01-1.94-1.33c7.42-1.77,11.45-2.74,12.1-2.9
		c4.19-0.64,6.94-2.5,8.23-5.57c0-0.16,1.21-1.94,3.63-5.32c0.32,0.65,0.73,1.54,1.21,2.66c0.48-0.48,2.1-2.82,4.84-7.02l0.48,0.48
		c-0.65,5.32-1.05,8.31-1.21,8.95c0,0.97,0.24,1.66,0.73,2.06c0.48,0.4,1.21,0.36,2.18-0.12c0.48-0.16,2.98-1.85,7.5-5.08
		c0.16,0,0.32,0.08,0.48,0.24c0.32,0.48,0.56,0.89,0.73,1.21c0.16-0.32,0.4-0.85,0.72-1.57c0.32-0.73,0.56-1.25,0.73-1.57l1.45,2.18
		c1.61,1.78,3.47,2.58,5.56,2.42c5.32-0.64,15.08-1.61,29.28-2.9c0.8-0.16,2.14-0.24,3.99-0.24c1.85,0,3.27-0.08,4.23-0.24
		c0.16,0,1.45-0.81,3.87-2.42c-0.65,1.13-1.37,2.58-2.18,4.36c0.32,0.16,0.8,0.48,1.45,0.97c0.64,0.48,1.21,0.93,1.7,1.33
		c0.48,0.4,0.8,0.85,0.97,1.33c0.16,0.33,0.28,0.65,0.36,0.97c0.08,0.33,0.12,0.69,0.12,1.09c0,0.4-0.04,0.77-0.12,1.09
		c-0.08,0.33-0.12,0.73-0.12,1.21S787.93,34.11,787.93,34.6z M717.75,41.62c1.45-3.55,1.21-5.24-0.73-5.08
		c-1.13,0.33-2.1,1.29-2.9,2.9c-0.32,0.65-1.61,3.71-3.87,9.2v0.73l0.73-0.48c-0.65,0.97-2.42,3.87-5.32,8.71l0.48-2.42
		c0.64-1.61,0.88-2.5,0.72-2.66c-0.16-0.16-0.72,0.4-1.69,1.69c-1.94,2.75-2.66,4.2-2.18,4.36c0.64,0.97,0.76,2.3,0.36,3.99
		c-0.41,1.69-0.73,2.82-0.97,3.39c-0.24,0.57-0.77,1.54-1.57,2.9c-0.81,1.37-1.29,2.22-1.45,2.54c-1.94,3.55-2.99,5.97-3.15,7.26
		c1.29-0.32,3.15-0.88,5.57-1.69c0.97-3.06,1.45-4.68,1.45-4.84c0.48-0.64,0.97-1.45,1.45-2.42s0.88-1.89,1.21-2.78
		c0.32-0.88,0.68-1.89,1.09-3.02c0.4-1.13,0.76-2.02,1.09-2.66c2.09-4.68,3.55-7.42,4.36-8.23c0.48-0.64,0.97-1.41,1.45-2.3
		c0.48-0.88,0.93-1.77,1.33-2.66c0.4-0.88,0.85-1.97,1.33-3.27C717.02,43.47,717.42,42.43,717.75,41.62z"/>
		<path class="st0" d="M1021.6,31.45c-0.97,1.61-2.14,3.15-3.51,4.6c-1.37,1.45-2.58,2.54-3.63,3.27c-1.05,0.73-2.58,1.66-4.6,2.78
		c-2.02,1.13-3.43,2.02-4.24,2.66c1.13,2.26,0.16,4.2-2.9,5.81c-8.71,4.68-16.94,9.2-24.68,13.55c-1.61,0.97-2.58,1.86-2.9,2.66
		c-0.16,0.48-0.33,0.93-0.48,1.33c-0.16,0.4-0.45,0.81-0.85,1.21c-0.41,0.4-0.73,0.73-0.97,0.97c-0.24,0.24-0.65,0.57-1.21,0.97
		c-0.57,0.4-0.93,0.65-1.09,0.73c-0.16,0.08-0.6,0.33-1.33,0.73c-0.73,0.4-1.17,0.6-1.33,0.6c-0.97,0.48-1.61,1.05-1.94,1.69
		c0.97-0.32,1.77-0.56,2.42-0.73l0.24,0.48c-2.42,1.61-3.71,2.42-3.87,2.42c-4.36,2.42-9.36,5-15,7.74
		c-1.78,0.97-2.42,2.26-1.94,3.87c0.48,1.29,1.21,3.63,2.18,7.02c0.97,3.39,1.73,5.93,2.3,7.62c0.56,1.69,1.33,3.91,2.3,6.66
		c0.97,2.75,1.94,5.2,2.9,7.38c0.97,2.18,2.09,4.32,3.39,6.41c10.49,18.07,20.81,31.79,30.98,41.14c0.48,0.48,1.89,1.49,4.24,3.02
		c2.34,1.54,3.91,2.87,4.72,3.99c0.81,1.45,2.38,2.75,4.72,3.87c2.34,1.13,3.75,1.86,4.24,2.18c-0.97,1.29-2.06,1.98-3.27,2.06
		c-1.21,0.08-2.58-0.12-4.11-0.6c-1.54-0.48-2.7-0.73-3.51-0.73c0.64,0.33,1.33,0.73,2.06,1.21c0.73,0.48,1.49,0.97,2.3,1.45
		c0.81,0.48,1.45,0.97,1.94,1.45c-0.16,0.16-0.24,0.32-0.24,0.48c-0.81-0.33-2.34-0.81-4.6-1.45c0.8,1.13,1.69,2.38,2.66,3.75
		c0.97,1.37,1.89,2.66,2.78,3.87c0.88,1.21,1.65,2.3,2.3,3.27c-0.81,0.81-1.98,1.89-3.51,3.27c-1.54,1.37-2.54,2.3-3.02,2.78
		c-2.9-2.58-4.44-3.96-4.6-4.11c-9.04-6.13-17.1-13.23-24.2-21.3c-1.29-1.61-3.23-3.71-5.81-6.29c-0.16-0.16-0.45-0.2-0.85-0.12
		c-0.41,0.08-0.69,0.12-0.85,0.12c-0.65-0.16-1.13-0.4-1.45-0.73c-0.97-1.29-2.38-2.78-4.24-4.48c-1.86-1.69-3.51-3.35-4.96-4.96
		c-1.45-1.61-2.66-3.23-3.63-4.84c-0.97-1.77-2.54-4.03-4.72-6.78c-2.18-2.74-3.43-4.36-3.75-4.84c-0.16-0.16-0.65-1.37-1.45-3.63
		c-0.65,0.48-1.29,0.89-1.94,1.21c-0.48-1.13-2.95-6.05-7.38-14.76c-4.44-8.71-6.98-15.81-7.62-21.3
		c-5.81,10.81-9.44,17.59-10.89,20.33c-0.16,0.33-0.53,0.65-1.09,0.97c-0.57,0.33-0.93,0.57-1.09,0.73
		c-0.81,0.81-1.37,1.45-1.69,1.94c0,0.16-0.57,1.54-1.69,4.11c-1.13,2.58-2.1,4.44-2.9,5.57c-2.9,4.36-6.45,11.94-10.65,22.75
		c-0.65,1.61-2.58,7.59-5.81,17.91c-0.16,0-0.24,0.57-0.24,1.69c2.74-4.03,4.36-6.45,4.84-7.26c-0.16,0.16-0.48,0.4-0.97,0.73v-0.73
		c1.29-4.19,2.09-6.61,2.42-7.26c0.64-1.29,1.69-2.09,3.15-2.42c1.45-0.32,2.42-0.16,2.9,0.48c0.48,0.65,0.4,1.61-0.24,2.9
		c-0.16,0.65-0.45,1.69-0.85,3.15c-0.41,1.45-0.85,2.66-1.33,3.63c-0.48,0.97-1.05,1.74-1.69,2.3c-0.65,0.57-1.17,1.17-1.57,1.81
		c-0.4,0.65-1.01,2.26-1.81,4.84c-0.16,0.65-0.4,1.61-0.73,2.9c-0.33,1.29-0.65,2.42-0.97,3.39c-0.33,0.97-0.81,1.77-1.45,2.42
		c-0.33,0.32-0.48,0.73-0.48,1.21s0,1.01,0,1.57c0,0.56,0,0.93,0,1.09c-0.65,0.16-1.45,0.4-2.42,0.73c-0.97,0.32-1.86,0.6-2.66,0.85
		c-0.81,0.24-1.62,0.44-2.42,0.6c-0.16-0.97,0.56-2.9,2.18-5.81c0-0.33,0.36-1.01,1.09-2.06c0.73-1.05,1.21-1.9,1.45-2.54
		c0.24-0.65,0.28-1.45,0.12-2.42c-0.16-0.97-0.65-1.94-1.45-2.9c-1.94,0-3.23,1.05-3.87,3.15c-0.16,0.97-1.61,5.57-4.36,13.79
		c-1.45-0.81-2.46-1.49-3.02-2.06c-0.57-0.57-0.69-1.49-0.36-2.78c0.32-1.78-0.16-3.39-1.45-4.84c-1.13-0.97-1.45-2.99-0.97-6.05
		c0.16-0.32-0.08-0.73-0.73-1.21c-0.33,0.65-0.73,1.57-1.21,2.78c-0.48,1.21-0.89,2.14-1.21,2.78l-0.24-0.24
		c0.64-3.87,0.97-5.97,0.97-6.29c0.32-4.36,0.32-7.34,0-8.95c-0.16-1.29,0.16-3.79,0.97-7.5c0.32-0.81,1.21-4.36,2.66-10.65
		c0.32-1.77,0.48-2.74,0.48-2.9c0.8-1.77,1.61-3.67,2.42-5.69c0.81-2.02,1.73-4.23,2.78-6.65c1.05-2.42,1.81-4.27,2.3-5.57
		c0-0.16,0.08-0.4,0.24-0.73v-0.48c1.45,0,2.5-0.36,3.15-1.09c0.64-0.73,1.17-1.77,1.57-3.15c0.4-1.37,0.76-2.3,1.09-2.78
		c-0.16-0.16-0.4-0.4-0.73-0.73c-0.97,0.97-1.45,1.54-1.45,1.69c-0.48,1.45-1.57,2.46-3.27,3.02c-1.69,0.57-3.11,0.36-4.23-0.6
		c0-0.16-0.24-0.81-0.73-1.94c-0.81,0.33-1.78,0.65-2.9,0.97c-0.48,0.48-1.09,1.01-1.82,1.57c-0.73,0.57-1.45,1.17-2.18,1.81
		c-0.73,0.65-1.41,1.21-2.06,1.69c1.45-0.32,3.3-0.73,5.57-1.21c0.16,0.16,0.24,0.33,0.24,0.48c-4.68,3.55-7.18,5.49-7.5,5.81
		c-0.97,0.48-2.06,1.66-3.27,3.51c-1.21,1.86-3.35,4.6-6.41,8.23c-3.07,3.63-7.1,7.54-12.1,11.74c-7.58,3.23-12.42,5.17-14.52,5.81
		c-1.61,0.33-4.03,0.69-7.26,1.09c-3.23,0.4-5.49,0.69-6.78,0.85c-5.17,1.13-13.07,0.73-23.72-1.21c-10-1.94-17.75-7.74-23.23-17.42
		l-2.66-2.66c1.29-0.16,1.61-1.13,0.97-2.9c-3.87-10-3.47-23.07,1.21-39.2c0.65-2.42,1.9-5.69,3.75-9.8
		c1.85-4.11,3.03-6.73,3.51-7.86c1.13-2.9,2.46-5.73,3.99-8.47c1.53-2.74,3.59-5.69,6.17-8.83c2.58-3.15,4.39-5.36,5.45-6.65
		c1.05-1.29,3.51-3.91,7.38-7.87c3.87-3.95,6.05-6.17,6.53-6.65c9.2-9.84,20.73-16.37,34.61-19.6c3.87-0.97,6.21-1.45,7.02-1.45
		c0.32-0.16,0.81-0.04,1.45,0.36c0.64,0.4,1.05,0.6,1.21,0.6c0.81,0.33,1.45,0.4,1.94,0.24c4.03-1.29,7.1-0.73,9.2,1.69
		c1.94,2.26,3.71,4.11,5.32,5.57c0.97,0.81,2.58,1.78,4.84,2.9c0.32,0,0.88-0.4,1.69-1.21c0.97-0.97,1.53-1.45,1.69-1.45
		c-0.33,0.65-0.73,1.61-1.21,2.9c-0.48,1.29-0.81,2.26-0.97,2.9c0.16,0,0.36,0.04,0.61,0.12c0.24,0.08,0.36,0.2,0.36,0.36
		c2.9-3.55,4.44-5.4,4.6-5.57c3.22-4.84,5.97-9.35,8.23-13.55l0.73-4.36c-0.16,0-0.41,0-0.73,0c-0.33,0-0.57,0.08-0.73,0.24
		c0,0.16,0.04,0.53,0.12,1.09c0.08,0.57,0.2,0.93,0.36,1.09c-1.94-0.16-3.67,0.77-5.2,2.78c-1.54,2.02-2.46,3.19-2.78,3.51
		c0.97-1.45,2.06-3.83,3.27-7.14c1.21-3.3,2.46-5.69,3.75-7.14c1.29-1.45,2.5-2.02,3.63-1.69c0.32,0.33,1.45,0.36,3.39,0.12
		c1.94-0.24,3.06-0.36,3.39-0.36c0.64,0,2.74,0.08,6.29,0.24c0.16,0,0.32,0.08,0.48,0.24c0.64,0.33,1.21,1.57,1.69,3.75
		c0.48,2.18,0.48,3.67,0,4.48c-1.29,1.94-2.1,3.71-2.42,5.32c0.48-0.64,1.21-1.61,2.18-2.9c0,0.33-0.57,2.46-1.69,6.41
		c-1.13,3.96-2.42,6.82-3.87,8.59c-0.65,0.81-1.29,1.66-1.94,2.54c-0.65,0.89-1.25,1.74-1.81,2.54c-0.57,0.81-1.13,1.66-1.69,2.54
		c-0.57,0.89-1.13,1.81-1.69,2.78c-0.57,0.97-1.17,1.78-1.81,2.42c-0.97,1.45-2.5,3.51-4.6,6.17c-2.1,2.66-3.55,4.64-4.36,5.93
		c-0.81,0.97-1.9,2.46-3.27,4.48c-1.37,2.02-2.14,3.19-2.3,3.51c-1.29,1.94-3.07,2.75-5.32,2.42c-1.45-0.16-2.42,0.08-2.9,0.73
		c-3.23,3.87-8.31,5.65-15.25,5.32c0.16-0.64,0.44-1.57,0.85-2.78c0.4-1.21,0.73-2.22,0.97-3.02c0.24-0.81,0.52-1.69,0.85-2.66
		c0.32-0.97,0.52-1.94,0.6-2.9c0.08-0.97,0.04-1.94-0.12-2.9c0-0.81-0.16-5.89-0.48-15.25c-5.17,1.29-10.89,4.6-17.18,9.92
		c-1.13,0.97-2.5,2.14-4.11,3.51c-1.62,1.37-2.99,2.58-4.11,3.63c-1.13,1.05-2.46,2.18-3.99,3.39c-1.54,1.21-2.95,2.3-4.23,3.27
		c-7.26,4.84-13.31,12.02-18.15,21.54c-6.46,12.75-10.25,23.15-11.37,31.22c-1.29,8.55-0.57,14.92,2.18,19.12l2.66,2.9
		c0.64,0.65,1.21,1.21,1.69,1.69c0,0.16,0,0.33,0,0.48l0.24,0.24c0.8,0.16,1.97,0.73,3.51,1.69c1.53,0.97,2.94,1.45,4.23,1.45
		c5.16,0.16,15.33-3.71,30.49-11.62c6.61-3.39,13.55-9.2,20.81-17.42c0.16-4.03,1.53-6.93,4.11-8.71c1.94-1.29,4.36-2.98,7.26-5.08
		c0.32-0.32,0.56-0.56,0.73-0.73c1.94-1.45,4.27-3.23,7.02-5.32c-2.26,1.13-4.2,2.02-5.81,2.66h0.73l-0.48,0.48
		c-3.55,2.58-5.57,4.03-6.05,4.36c-1.13,0.65-2.1,0.81-2.9,0.48c-1.78-0.64-1.29-1.85,1.45-3.63c0.48-0.32,1.33-0.88,2.54-1.69
		c1.21-0.81,2.22-1.49,3.03-2.06c0.8-0.56,1.61-0.93,2.42-1.09c0.8-0.16,2.74-1.29,5.81-3.39c0.64-0.32,1.45-0.88,2.42-1.69
		c0.97-0.81,1.85-1.49,2.66-2.06c0.81-0.56,1.61-0.93,2.42-1.09c0.16-0.16,1.13-1.05,2.9-2.66c0.32,0.16,0.8,0.36,1.45,0.6
		c0.64,0.24,1.21,0.36,1.69,0.36l0.48-0.24c4.68-3.39,10.49-7.26,17.42-11.62c0.64-0.48,1.25-1.01,1.82-1.57
		c0.56-0.56,1.05-1.33,1.45-2.3c0.4-0.97,0.68-1.57,0.85-1.81c0.16-0.24,0.64-1.81,1.45-4.72c0.16-0.48,0.8-1.53,1.94-3.15
		c0.16-0.16,0.32-0.32,0.48-0.48l0.73-0.48c0.97-2.26,3.15-7.5,6.53-15.73l-0.73-0.24c-0.48,0.65-1.25,1.57-2.3,2.78
		c-1.05,1.21-1.81,2.14-2.3,2.78c-0.16,0-0.33-0.08-0.48-0.24c-0.16-0.16-0.33-0.24-0.48-0.24c1.13-3.71,1.69-5.65,1.69-5.81
		c5.81-11.13,10.89-20.65,15.25-28.56c1.94-3.39,4.36-5.16,7.26-5.32c0.16,0,0.48-0.4,0.97-1.21c0.97-1.94,2.58-2.5,4.84-1.69
		c0,0.48-0.08,1.54-0.24,3.15c0.97-0.48,2.42-1.25,4.36-2.3c1.94-1.05,3.39-1.81,4.36-2.3c1.77,1.45,2.74,2.18,2.9,2.18
		c0.81,1.45,1.05,2.58,0.73,3.39c-4.68,11.29-7.26,17.59-7.74,18.88c0,2.58,0,3.96,0,4.11c-0.16,0.65-0.61,1.86-1.33,3.63
		c-0.73,1.78-1.17,3.15-1.33,4.11c-0.33,1.78-0.33,3.96,0,6.53c0.16,0.33,0.6,0.65,1.33,0.97c0.73,0.33,1.17,0.48,1.33,0.48
		c0.64-0.48,2.01-1.77,4.11-3.87c0.32-0.32,0.68-0.73,1.09-1.21c0.4-0.48,0.76-0.93,1.09-1.33c0.32-0.4,0.68-0.81,1.09-1.21
		c0.4-0.4,0.85-0.68,1.33-0.85c7.9-4.03,17.91-8.95,30.01-14.76c4.84-2.26,10.24-4.6,16.21-7.02c1.77-0.64,4.11-1.29,7.02-1.94
		c1.45-0.32,2.42-0.2,2.9,0.36c0.48,0.57,0.4,1.49-0.24,2.78c-0.48,0.65-0.65,1.17-0.48,1.57c0.16,0.4,0.32,0.69,0.48,0.85
		c0.16,0.16,0.44,0.33,0.85,0.48c0.4,0.16,0.6,0.33,0.6,0.48C1016.28,29.68,1018.21,30.33,1021.6,31.45z M800.41,64.61
		c-1.45,1.94-1.37,2.82,0.24,2.66c2.09-0.32,3.79-0.97,5.08-1.94c3.71-5,6.45-8.39,8.23-10.16c2.26-1.94,5.69-4.36,10.29-7.26
		c4.6-2.9,7.54-4.84,8.83-5.81c2.9-2.09,4.68-4.68,5.32-7.74c0.32-1.29-0.08-1.77-1.21-1.45c-0.81,0.16-1.94,0.89-3.39,2.18
		c-0.81,0.65-1.78,1.25-2.9,1.81c-1.13,0.57-2.14,1.09-3.03,1.57c-0.89,0.48-1.9,1.05-3.02,1.69c-1.13,0.65-2.1,1.29-2.9,1.94
		c-1.78,1.29-3.35,2.54-4.72,3.75c-1.37,1.21-2.75,2.54-4.11,3.99c-1.37,1.45-2.46,2.62-3.27,3.51c-0.81,0.89-1.98,2.26-3.51,4.11
		c-1.54,1.86-2.62,3.19-3.27,3.99c-0.48,0.65-0.81,1.05-0.97,1.21c-0.48,0.33-0.97,0.81-1.45,1.45
		C800.66,64.29,800.57,64.45,800.41,64.61z M878.34,151.48c0.32-0.97,0.88-2.5,1.69-4.6c-0.16,0-0.33-0.08-0.48-0.24
		c-0.16-0.16-0.33-0.24-0.48-0.24c-1.13,1.29-1.74,1.98-1.82,2.06c-0.08,0.08-0.12,1.09-0.12,3.02c0.16,0,0.36,0,0.61,0
		S878.18,151.48,878.34,151.48z M944.89,24.43c0.48-1.13,0.76-2.09,0.85-2.9c0.08-0.81-0.04-1.41-0.36-1.81
		c-0.33-0.4-0.81-0.52-1.45-0.36c-1.13,0.16-2.1,1.05-2.9,2.66c-0.33,0.81-1.62,3.87-3.87,9.2c0,0.16,0,0.48,0,0.97
		c0.48-0.32,0.73-0.56,0.73-0.73c-0.65,1.13-2.42,4.03-5.32,8.71l0.48-2.18c0.64-1.61,0.88-2.5,0.73-2.66
		c-0.16-0.32-0.73,0.24-1.69,1.69c-1.94,2.75-2.58,4.2-1.94,4.36c0.48,0.81,0.52,2.1,0.12,3.87c-0.4,1.78-0.73,2.9-0.97,3.39
		c-0.24,0.48-0.77,1.45-1.57,2.9c-0.81,1.45-1.29,2.26-1.45,2.42c-1.94,3.71-2.99,6.21-3.15,7.5c1.29-0.48,3.15-1.05,5.57-1.69
		l1.45-4.84c0.64-0.97,1.25-2.06,1.82-3.27c0.56-1.21,1.13-2.62,1.69-4.24c0.56-1.61,1.01-2.82,1.33-3.63
		c2.09-4.51,3.55-7.26,4.36-8.23c0.64-0.64,1.25-1.57,1.82-2.78c0.56-1.21,1.25-2.74,2.06-4.6C944,26.33,944.56,25.08,944.89,24.43z
		"/>
	</g>
</svg>
